<svg xmlns="http://www.w3.org/2000/svg" width="795.857" height="497.939" viewBox="0 0 795.857 497.939"><g transform="translate(0.001 0)"><path d="M955.328,296.258C926.126,181.426,825.221,98.534,706.781,95.209c-62.617-1.757-128.507,19.01-176.479,91.68-85.756,129.907,5.27,219.677,68.73,262.333a397.093,397.093,0,0,1,82.077,73.771c42.865,50.867,125.329,114.076,223.539,15.037C975.834,466.245,974.782,372.747,955.328,296.258Z" transform="translate(-170.827 -95.108)" fill="#f2f2f2"/><path d="M188.038,504.107c-.787-1.165-1.56-2.362-2.3-3.556l1.193-.739c.729,1.179,1.492,2.359,2.268,3.509Z" transform="translate(-78.43 -215.898)" fill="#3f3d56"/><path d="M174.892,425.411c-1.3-2.554-2.511-5.192-3.595-7.842l1.3-.532c1.07,2.614,2.263,5.217,3.547,7.736Zm-6.527-15.955c-.861-2.731-1.617-5.534-2.249-8.328l1.369-.31c.623,2.757,1.37,5.521,2.219,8.215Zm-3.8-16.813c-.4-2.831-.683-5.719-.848-8.582l1.4-.081c.162,2.826.444,5.675.836,8.468Zm.409-17.174-1.4-.033c.067-2.868.254-5.763.554-8.6l1.4.147c-.3,2.8-.48,5.661-.546,8.491Zm1.787-16.907-1.378-.262c.534-2.814,1.193-5.639,1.958-8.4l1.352.375c-.755,2.723-1.405,5.51-1.932,8.286ZM171.3,342.18l-1.316-.486c.992-2.688,2.11-5.368,3.322-7.966l1.272.593c-1.2,2.563-2.3,5.207-3.278,7.858Zm192.153-4.337c-1.1-2.6-2.317-5.19-3.628-7.7l1.243-.65c1.328,2.54,2.566,5.165,3.677,7.8ZM178.5,326.763l-1.218-.7c1.421-2.486,2.964-4.944,4.587-7.308l1.156.794C181.421,321.885,179.9,324.311,178.5,326.763Zm177.082-3.987c-1.511-2.387-3.14-4.74-4.843-7l1.12-.845c1.726,2.286,3.377,4.672,4.908,7.091ZM188.125,312.74l-1.088-.887c1.81-2.221,3.734-4.393,5.719-6.458l1.011.972C191.808,308.4,189.91,310.549,188.125,312.74ZM345.335,309.2c-1.882-2.109-3.874-4.166-5.922-6.113l.967-1.017c2.075,1.973,4.094,4.058,6,6.2ZM199.911,300.48l-.928-1.052c2.147-1.895,4.4-3.725,6.694-5.438l.839,1.124C204.251,296.805,202.029,298.61,199.911,300.48Zm133.1-3c-2.2-1.774-4.5-3.478-6.84-5.065l.788-1.161c2.37,1.609,4.7,3.335,6.933,5.133ZM213.537,290.31l-.744-1.189c2.429-1.52,4.95-2.955,7.492-4.267l.643,1.247C218.42,287.4,215.933,288.812,213.537,290.31Zm105.4-2.379c-2.465-1.391-5.015-2.694-7.579-3.874l.586-1.275c2.6,1.2,5.183,2.517,7.682,3.927Zm-90.3-5.415-.538-1.3c2.644-1.1,5.366-2.1,8.089-2.974l.429,1.336C233.933,280.446,231.248,281.433,228.64,282.516Zm74.845-1.693c-2.655-.964-5.386-1.829-8.114-2.569l.368-1.354c2.766.751,5.533,1.627,8.225,2.6Zm-58.665-3.5-.316-1.367c2.786-.646,5.638-1.184,8.474-1.6l.2,1.388c-2.8.409-5.611.94-8.36,1.577Zm42.251-.953c-2.773-.511-5.608-.913-8.425-1.195l.14-1.4c2.855.286,5.728.693,8.539,1.211Zm-25.429-1.505-.088-1.4c2.854-.18,5.763-.244,8.623-.193l-.025,1.4c-2.823-.052-5.691.012-8.508.19Z" transform="translate(-71.814 -148.278)" fill="#3f3d56"/><path d="M454.006,380.645c-.376-1.335-.784-2.681-1.214-4l1.334-.435c.436,1.337.85,2.7,1.23,4.055Z" transform="translate(-158.136 -179.007)" fill="#3f3d56"/><path d="M441.73,268.73h-1.4c0-1.4.025-2.829.074-4.234l1.4.049C441.755,265.934,441.73,267.342,441.73,268.73Z" transform="translate(-154.416 -145.664)" fill="#3f3d56"/><path d="M442.685,207.127l-1.4-.149c.3-2.826.707-5.674,1.209-8.467l1.381.248C443.384,201.519,442.982,204.335,442.685,207.127Zm2.987-16.627-1.359-.347c.7-2.754,1.514-5.515,2.412-8.206l1.331.444c-.888,2.66-1.69,5.388-2.385,8.109Zm223.763-14.8c-1.049-2.6-2.206-5.2-3.439-7.721l1.261-.617c1.248,2.549,2.418,5.178,3.48,7.813Zm-218.414-1.23-1.3-.539c1.091-2.622,2.292-5.239,3.571-7.78l1.253.631c-1.264,2.511-2.451,5.1-3.529,7.688ZM662.01,160.522c-1.411-2.425-2.927-4.83-4.509-7.15l1.159-.791c1.6,2.347,3.136,4.782,4.563,7.235Zm-203.388-1.155-1.2-.719c1.454-2.436,3.018-4.854,4.647-7.186l1.15.8C461.6,154.569,460.06,156.959,458.623,159.366Zm193.869-12.8c-1.745-2.2-3.589-4.367-5.482-6.436l1.034-.947c1.916,2.093,3.782,4.284,5.548,6.512ZM468.3,145.511l-1.09-.884c1.79-2.207,3.681-4.377,5.622-6.449l1.024.959C471.941,141.186,470.072,143.33,468.3,145.511ZM641.083,134.1c-2.04-1.931-4.173-3.813-6.342-5.592l.889-1.085c2.2,1.8,4.354,3.7,6.417,5.658Zm-161.229-.92-.954-1.03c2.083-1.929,4.263-3.808,6.479-5.584l.878,1.095c-2.19,1.755-4.345,3.612-6.4,5.518Zm148.163-9.8c-2.292-1.622-4.672-3.18-7.073-4.633l.726-1.2c2.429,1.47,4.837,3.047,7.156,4.687Zm-134.982-.769-.8-1.154c2.336-1.613,4.76-3.161,7.206-4.6l.712,1.208c-2.416,1.425-4.812,2.956-7.121,4.549Zm120.522-7.978c-2.5-1.278-5.079-2.479-7.663-3.572l.547-1.292c2.615,1.106,5.224,2.322,7.755,3.615Zm-105.974-.6-.624-1.256c2.542-1.262,5.161-2.447,7.787-3.523l.532,1.3c-2.594,1.064-5.183,2.234-7.695,3.482Zm90.409-5.985c-2.654-.9-5.379-1.722-8.1-2.433l.355-1.357c2.752.719,5.51,1.548,8.2,2.462Zm-74.79-.415-.437-1.333c2.7-.884,5.462-1.681,8.219-2.369l.34,1.361c-2.724.68-5.456,1.467-8.121,2.341Zm58.442-3.859c-2.759-.512-5.572-.93-8.361-1.243l.156-1.394c2.823.317,5.669.74,8.461,1.258Zm-42.051-.231-.24-1.383c2.8-.487,5.646-.878,8.473-1.164l.141,1.4c-2.793.282-5.611.669-8.373,1.15Zm25.262-1.656c-2.81-.114-5.666-.129-8.454-.046l-.042-1.4c2.822-.084,5.711-.07,8.554.047Z" transform="translate(-154.703 -96.684)" fill="#3f3d56"/><path d="M771.838,223.012c-.375-1.335-.781-2.683-1.2-4.007l1.336-.428c.429,1.339.839,2.7,1.219,4.054Z" transform="translate(-253.001 -131.959)" fill="#3f3d56"/><ellipse cx="23.37" cy="1.753" rx="23.37" ry="1.753" transform="translate(85.417 302.117)" fill="#6c63ff"/><ellipse cx="23.37" cy="1.753" rx="23.37" ry="1.753" transform="translate(271.792 217.402)" fill="#6c63ff"/><ellipse cx="23.37" cy="1.753" rx="23.37" ry="1.753" transform="translate(501.985 129.18)" fill="#6c63ff"/><rect width="99.381" height="1.403" transform="translate(445.824 195.451) rotate(-45)" fill="#3f3d56"/><rect width="118.018" height="1.403" transform="translate(307.431 204.431)" fill="#3f3d56"/><rect width="93.35" height="1.403" transform="translate(219.884 280.005) rotate(-45)" fill="#3f3d56"/><rect width="78.874" height="1.403" transform="translate(121.056 289.147)" fill="#3f3d56"/><rect width="110.842" height="1.403" transform="translate(21.24 376.406) rotate(-45)" fill="#3f3d56"/><path d="M182.329,515.723A12.971,12.971,0,1,1,195.3,502.752,12.971,12.971,0,0,1,182.329,515.723Zm0-24.539A11.568,11.568,0,1,0,193.9,502.752a11.568,11.568,0,0,0-11.568-11.568Z" transform="translate(-73.541 -212.904)" fill="#3f3d56"/><path d="M329.736,515.723a12.971,12.971,0,1,1,12.971-12.971,12.971,12.971,0,0,1-12.971,12.971Zm0-24.539A11.568,11.568,0,1,0,341.3,502.752a11.568,11.568,0,0,0-11.568-11.568Z" transform="translate(-117.537 -212.904)" fill="#3f3d56"/><path d="M447.995,394.965a12.971,12.971,0,1,1,12.971-12.971,12.971,12.971,0,0,1-12.971,12.971Zm0-24.538a11.568,11.568,0,1,0,11.568,11.568,11.568,11.568,0,0,0-11.568-11.568Z" transform="translate(-152.833 -176.862)" fill="#3f3d56"/><path d="M651.2,394.965a12.971,12.971,0,1,1,12.971-12.971A12.971,12.971,0,0,1,651.2,394.965Zm0-24.538a11.568,11.568,0,1,0,11.568,11.568A11.568,11.568,0,0,0,651.2,370.427Z" transform="translate(-213.483 -176.862)" fill="#3f3d56"/><path d="M776.123,269.211a12.971,12.971,0,1,1,12.971-12.971,12.971,12.971,0,0,1-12.971,12.971Zm0-24.538a11.568,11.568,0,1,0,11.568,11.568,11.568,11.568,0,0,0-11.568-11.568Z" transform="translate(-250.768 -139.329)" fill="#3f3d56"/><path d="M45.747,652.3a12.971,12.971,0,1,1,12.971-12.971A12.971,12.971,0,0,1,45.747,652.3Zm0-24.539a11.568,11.568,0,1,0,11.567,11.568,11.568,11.568,0,0,0-11.567-11.568Z" transform="translate(-32.777 -253.669)" fill="#3f3d56"/><path d="M177.9,399.173a23.37,23.37,0,0,0-23.37,23.37c0,12.907,23.37,55.5,23.37,55.5s23.37-42.6,23.37-55.5A23.37,23.37,0,0,0,177.9,399.173Zm0,35.639a12.269,12.269,0,1,1,12.269-12.269A12.269,12.269,0,0,1,177.9,434.812Z" transform="translate(-69.117 -185.861)" fill="#6c63ff"/><path d="M443.571,274.251a23.37,23.37,0,0,0-23.37,23.37c0,12.907,23.37,55.5,23.37,55.5s23.37-42.6,23.37-55.5a23.37,23.37,0,0,0-23.371-23.37Zm0,35.639a12.269,12.269,0,1,1,12.269-12.269,12.269,12.269,0,0,1-12.269,12.269Z" transform="translate(-148.409 -148.576)" fill="#6c63ff"/><rect width="318.171" height="1.714" transform="translate(435.778 496.225)" fill="#2f2e41"/><path d="M1004.367,155.632c-4.946,14.645-12.531,27.989-27.989,27.989s-27.118-12.556-27.989-27.989c-1.113-19.721,12.174-28.071,27.989-27.989C995.057,127.74,1010.239,138.252,1004.367,155.632Z" transform="translate(-306.035 -104.819)" fill="#2f2e41"/><rect width="55.241" height="69.972" transform="translate(642.354 48.604)" fill="#2f2e41"/><path d="M1027.693,238.7h4.7a41.829,41.829,0,0,1,6.265,34.456c-5.221,19.839-1.044,23.493-1.044,23.493s6.8,21.483-.512,53.852,6.777,41.165,6.777,41.165l-13.052-26.1-7.309-68.913Z" transform="translate(-328.477 -137.965)" fill="#575a89"/><path d="M1027.693,241.146h4.7a41.829,41.829,0,0,1,6.265,34.456c-5.221,19.839-1.044,23.493-1.044,23.493s6.8,21.483-.512,53.852,6.777,41.165,6.777,41.165l-13.052-26.1-7.309-68.913Z" transform="translate(-328.477 -138.695)" opacity="0.1"/><path d="M993.814,202.569s-4.177,16.706-2.088,16.706,9.4,8.875,9.4,8.875l4.7,17.228-3.654,12.53-12.53-2.61-15.662-17.228-4.7-4.7-4.177-15.14s5.221-6.265,1.566-11.485S993.814,202.569,993.814,202.569Z" transform="translate(-311.042 -127.156)" fill="#fbbebe"/><path d="M993.814,202.569s-4.177,16.706-2.088,16.706,9.4,8.875,9.4,8.875l4.7,17.228-3.654,12.53-12.53-2.61-15.662-17.228-4.7-4.7-4.177-15.14s5.221-6.265,1.566-11.485S993.814,202.569,993.814,202.569Z" transform="translate(-311.042 -127.156)" opacity="0.1"/><path d="M811.115,252.471l-11.486-18.794s-12.4-27.432-21.273-17.512S791.8,246.206,791.8,246.206l11.485,15.14Z" transform="translate(-254.683 -130.594)" fill="#fbbebe"/><path d="M1015.7,496.212l-8.355,61.082s1.044,4.7-9.4,21.927-38.633,54.817-38.633,54.817l-8.353-15.662s9.919-49.6,27.148-60.038l-2.088-75.178Z" transform="translate(-306.822 -210.928)" fill="#fbbebe"/><path d="M1015.7,496.212l-8.355,61.082s1.044,4.7-9.4,21.927-38.633,54.817-38.633,54.817l-8.353-15.662s9.919-49.6,27.148-60.038l-2.088-75.178Z" transform="translate(-306.822 -210.928)" opacity="0.1"/><path d="M939.633,666.973,951.119,688.9s-9.4,26.625-5.743,29.236,8.353,26.1-1.566,23.493-17.75-13.052-17.75-14.618,5.743-23.493,2.61-28.714-5.221-6.787-5.221-6.787l-7.831,13.052L913.008,703l13.052-21.927s1.566-4.177,7.831-6.787Z" transform="translate(-295.495 -265.79)" fill="#2f2e41"/><path d="M939.633,666.973,951.119,688.9s-9.4,26.625-5.743,29.236,8.353,26.1-1.566,23.493-17.75-13.052-17.75-14.618,5.743-23.493,2.61-28.714-5.221-6.787-5.221-6.787l-7.831,13.052L913.008,703l13.052-21.927s1.566-4.177,7.831-6.787Z" transform="translate(-295.495 -265.79)" opacity="0.1"/><path d="M969.256,487.546s4.055,57.741-4.82,72.88V635.6l-12.008,1.566s-24.249-39.8-15.374-78.956-9.163-75.054-9.163-75.054Z" transform="translate(-299.937 -210.928)" fill="#fbbebe"/><circle cx="21.927" cy="21.927" r="21.927" transform="translate(644.4 44.35)" fill="#fbbebe"/><path d="M952.452,256.488l-21.927-27.67L918,220.466l-5.223,6.787-14.618,4.177s-9.4,2.088-19.317,13.574-27.67,18.272-27.67,18.272l-14.618-2.61s-17.228-7.831-17.228-9.919-15.14,14.1-11.485,20.361,11.485,14.1,15.662,18.272,5.743,16.184,31.324,12.53S889.8,285.724,889.8,285.724s4.7,24.015,18.272,28.714,57.95,7.831,57.95,7.831l9.4-31.324s10.441-13.574-3.654-33.412c0,0-.271-11.1-1.786-18.478-.589-2.872-1.367-5.182-2.391-6.059-3.654-3.132-22.971-8.353-22.971-8.353s3.132,10.441,4.7,10.963S954.536,253.878,952.452,256.488Z" transform="translate(-263.935 -132.523)" fill="#575a89"/><path d="M910.342,451.025c26.291-1.827,41.6,2.48,48.427,5.764a17.314,17.314,0,0,1,3.561,2.161c.5.423.741.752.741.95,0,1.566,36.023,4.7,49.074,1.566s-8.875-70.479-14.618-76.222-2.647-26.761-2.647-26.761-11.449-2.475-14.581-1.43-19.316-1.566-25.059-4.7-13.052-1.044-17.75-2.088c-2.1-.465-3.159.318-3.686,1.331a9.026,9.026,0,0,1-3.571,3.607c-11.083,6.385-19.979,50.531-26.678,74.937C896.246,456.768,910.342,451.025,910.342,451.025Z" transform="translate(-292.046 -171.223)" fill="#2f2e41"/><path d="M975.346,693.763l2.088,11.485s10.967,15.663,7.831,28.714c0,0,2.61,17.228,12.008,21.927s1.566,15.662-7.309,15.14-17.228.522-18.272-2.088-7.309-28.192-7.309-28.192l-1.714,29.935-5.221.522,1.714-34.634s-4.177-7.831,1.566-20.883l-1.449-20.034S973.78,698.984,975.346,693.763Z" transform="translate(-308.758 -273.785)" fill="#2f2e41"/><path d="M983.154,488.5a17.307,17.307,0,0,1,3.56,2.161c.277-4.934,1.874-34.77-.042-34.289Z" transform="translate(-316.431 -202.93)" opacity="0.1"/><path d="M957.885,145.644s-.243-1.352-9.74,2.21S932.955,177.7,937.7,193.13c1.914,6.219.357,10.7-2.184,13.841-9.535,11.774-5.781,29.458,8.107,35.512q.588.256,1.2.507l5.936,3.561s-7.567-9.956-3.78-22.692a65.3,65.3,0,0,0,1.178-33.428c-.434-1.865-.928-3.788-1.489-5.75-4.749-16.62-2.439-14.7,14.181-31.321,0,0,9.5,7.123,17.807,10.684s15.433,7.123,9.5,18.994-20.181,22.556-10.684,37.989,10.684,9.5,9.5,15.433h0l-1.187,5.936,7.123-7.123-4.749,9.5s15.433,0,20.181-11.871l2.374,2.374s9.5-16.62-8.31-32.053c0,0-5.936-3.561,2.374-15.433s1.928-37.4-8.756-42.144S957.885,145.644,957.885,145.644Z" transform="translate(-300.636 -109.561)" fill="#2f2e41"/><circle cx="11.048" cy="11.048" r="11.048" transform="translate(659.294 6.621)" fill="#2f2e41"/><path d="M968.474,107.195A11.048,11.048,0,0,1,978.417,96.2c-.363-.036-.731-.056-1.1-.056a11.048,11.048,0,0,0,0,22.1c.373,0,.741-.02,1.1-.056a11.049,11.049,0,0,1-9.943-10.992Z" transform="translate(-311.39 -95.418)" fill="#2f2e41"/><path d="M771.7,154.326a23.37,23.37,0,0,0-23.37,23.37c0,12.907,23.37,55.5,23.37,55.5s23.37-42.6,23.37-55.5a23.37,23.37,0,0,0-23.37-23.37Zm0,35.639A12.269,12.269,0,1,1,783.968,177.7,12.269,12.269,0,0,1,771.7,189.965Z" transform="translate(-246.344 -112.783)" fill="#6c63ff"/><circle cx="12.645" cy="12.645" r="12.645" transform="translate(324.316 451.086)" fill="#f1f1f1"/><circle cx="12.645" cy="12.645" r="12.645" transform="translate(402.991 397.597)" fill="#f1f1f1"/><circle cx="12.645" cy="12.645" r="12.645" transform="translate(305.697 347.792)" fill="#f1f1f1"/></g></svg>