<svg xmlns="http://www.w3.org/2000/svg" width="773.739" height="863.892" viewBox="0 0 773.739 863.892"><g transform="translate(-1691.228 1491.607)"><path d="M1935.37-983.42l340.919,34.092" fill="none" stroke="#d2d0ef" stroke-linecap="round" stroke-width="30"/><path d="M1825.227-873.277H2341.85" fill="none" stroke="#d2d0ef" stroke-linecap="round" stroke-width="30"/><path d="M1751.8-773.623l671.348,89.163" fill="none" stroke="#d2d0ef" stroke-linecap="round" stroke-width="30"/><g transform="translate(1742 -1450.42)"><path d="M1935.37-954.776,2299.2-983.42" transform="translate(-1751.798 1253.736)" fill="none" stroke="#d2d0ef" stroke-linecap="round" stroke-width="30"/><path d="M1825.227-873.277H2341.85" transform="translate(-1751.798 1062.093)" fill="none" stroke="#d2d0ef" stroke-linecap="round" stroke-width="30"/><path d="M1751.8-692.124l684.46-81.5" transform="translate(-1744.622 773.623)" fill="none" stroke="#d2d0ef" stroke-linecap="round" stroke-width="30"/></g><g transform="translate(94.202 -35.227)"><path d="M1611.8-595.094s60.518-342.936,373.195-429.678" fill="none" stroke="#6c63ff" stroke-width="30"/><path d="M1611.8-595.094s60.518-342.936,373.195-429.678" transform="translate(3967.792 -2048.867) rotate(-180)" fill="none" stroke="#6c63ff" stroke-width="30"/></g><g transform="translate(1706 -1489)"><path d="M1984.993-595.094S1924.475-938.03,1611.8-1024.773" transform="translate(-1240.798 1453.773)" fill="none" stroke="#6c63ff" stroke-width="30"/><path d="M0,0S60.518,342.936,373.195,429.678" transform="translate(0 0)" fill="none" stroke="#6c63ff" stroke-width="30"/></g></g></svg>